<svg xmlns="http://www.w3.org/2000/svg" id="SvgjsSvg422681" width="4096" height="1449.01021677786" version="1.1" xmlns:xlink="http://www.w3.org/1999/xlink" xmlns:svgjs="http://svgjs.com/svgjs"><defs id="SvgjsDefs422682"></defs><g id="SvgjsG422683" transform="translate(328, 327.99999999999994) scale(34.4)" opacity="1"><defs id="SvgjsDefs127722"></defs><g id="SvgjsG127723" transform="scale(0.21645021645021645)" opacity="1"><g id="SvgjsG127724" class="KrKUXWpvO" transform="translate(-0.975490305867866, -0.023927513825584616) scale(1.184639067562749)" light-content="false" non-strokable="false" fill="#ffffff"><path d="M79.3 71.9c-2.4-1-4.9-.9-7.1 0l-9.8-13.2c-1.2 1.1-2.4 2-3.8 2.8l9.8 13.2c-.5.7-1 1.4-1.4 2.2-2 4.8.2 10.3 5 12.3s10.3-.3 12.3-5c2.1-4.8-.2-10.2-5-12.3zM14.7 68c3.5-2 5.3-5.9 4.7-9.6l10.8-4.6c0-.1-.1-.1-.1-.2-.7-1.3-1.3-2.7-1.7-4.1L17.6 54c-2.8-3.6-7.8-4.7-11.9-2.5C1.1 54-.5 59.7 2 64.3c2.5 4.5 8.2 6.2 12.7 3.7zM75.3 1.2c-4.5 2.5-6.2 8.2-3.7 12.8.1.2.2.3.4.5L61.5 25.8c1.3.9 2.4 2 3.5 3.2l10.4-11.3c2.7 1.4 6.1 1.5 8.9-.1 4.5-2.5 6.2-8.2 3.7-12.8-2.5-4.5-8.2-6.1-12.7-3.6z"></path><circle cx="48.9" cy="43.1" r="16.1"></circle></g><g id="SvgjsG127725" class="text" transform="translate(291.944808745947, 69.4584776543274) scale(1)" light-content="false" fill="#ffffff"><path d="M-141.24 -12.2C-141.24 -15.06 -142.01 -17.48 -143.53 -19.45C-145.05 -21.43 -147.86 -23.39 -151.97 -25.36C-155.07 -26.84 -157.04 -27.86 -157.87 -28.44C-158.7 -29.01 -159.31 -29.6 -159.69 -30.21C-160.07 -30.82 -160.26 -31.53 -160.26 -32.36C-160.26 -33.68 -159.79 -34.75 -158.85 -35.57C-157.91 -36.39 -156.56 -36.8 -154.79 -36.8C-153.31 -36.8 -151.8 -36.61 -150.27 -36.23C-148.74 -35.85 -146.8 -35.18 -144.46 -34.22L-141.45 -41.46C-143.72 -42.44 -145.89 -43.2 -147.96 -43.74C-150.03 -44.28 -152.21 -44.55 -154.49 -44.55C-159.14 -44.55 -162.78 -43.44 -165.41 -41.22C-168.05 -38.99 -169.36 -35.94 -169.36 -32.06C-169.36 -29.99 -168.96 -28.19 -168.16 -26.65C-167.36 -25.11 -166.29 -23.75 -164.95 -22.59C-163.61 -21.43 -161.59 -20.22 -158.91 -18.96C-156.05 -17.59 -154.15 -16.6 -153.22 -15.98C-152.28 -15.36 -151.58 -14.72 -151.1 -14.04C-150.62 -13.37 -150.38 -12.61 -150.38 -11.75C-150.38 -10.2 -150.92 -9.04 -152.01 -8.26C-153.11 -7.48 -154.67 -7.09 -156.72 -7.09C-158.42 -7.09 -160.3 -7.36 -162.35 -7.9C-164.4 -8.44 -166.91 -9.37 -169.87 -10.7L-169.87 -2.04C-166.27 -0.28 -162.12 0.6 -157.44 0.6C-152.35 0.6 -148.38 -0.54 -145.53 -2.82C-142.67 -5.11 -141.24 -8.23 -141.24 -12.2Z M-110.21 0L-103.18 0L-103.18 -33.59L-112.34 -33.59L-112.34 -17.79C-112.34 -13.82 -112.91 -10.98 -114.06 -9.27C-115.2 -7.56 -117.05 -6.7 -119.61 -6.7C-121.5 -6.7 -122.87 -7.31 -123.73 -8.52C-124.59 -9.73 -125.02 -11.55 -125.02 -13.97L-125.02 -33.59L-134.18 -33.59L-134.18 -11.69C-134.18 -7.72 -133.18 -4.68 -131.18 -2.57C-129.18 -0.46 -126.2 0.6 -122.26 0.6C-119.95 0.6 -117.9 0.18 -116.1 -0.68C-114.3 -1.53 -112.9 -2.73 -111.92 -4.3L-111.44 -4.3Z M-75.12 0.6C-72.5 0.6 -70.21 -0.09 -68.27 -1.47C-66.33 -2.85 -64.83 -4.87 -63.78 -7.51C-62.73 -10.15 -62.2 -13.27 -62.2 -16.85C-62.2 -22.3 -63.32 -26.56 -65.57 -29.62C-67.81 -32.69 -70.91 -34.22 -74.88 -34.22C-79.09 -34.22 -82.26 -32.56 -84.4 -29.23L-84.82 -29.23L-86.12 -33.59L-93.57 -33.59L-93.57 14.78L-84.4 14.78L-84.4 1.17C-84.4 0.73 -84.56 -0.89 -84.88 -3.7L-84.4 -3.7C-82.16 -0.83 -79.07 0.6 -75.12 0.6ZM-77.82 -26.89C-75.66 -26.89 -74.07 -26.06 -73.06 -24.41C-72.05 -22.76 -71.55 -20.28 -71.55 -16.97C-71.55 -10.2 -73.6 -6.82 -77.7 -6.82C-80.03 -6.82 -81.73 -7.6 -82.8 -9.16C-83.87 -10.73 -84.4 -13.31 -84.4 -16.91L-84.4 -17.91C-84.36 -21.11 -83.82 -23.41 -82.78 -24.8C-81.74 -26.19 -80.09 -26.89 -77.82 -26.89Z M-36.19 0.6C-33.56 0.6 -31.28 -0.09 -29.34 -1.47C-27.39 -2.85 -25.9 -4.87 -24.85 -7.51C-23.79 -10.15 -23.27 -13.27 -23.27 -16.85C-23.27 -22.3 -24.39 -26.56 -26.63 -29.62C-28.88 -32.69 -31.98 -34.22 -35.95 -34.22C-40.15 -34.22 -43.33 -32.56 -45.47 -29.23L-45.89 -29.23L-47.18 -33.59L-54.63 -33.59L-54.63 14.78L-45.47 14.78L-45.47 1.17C-45.47 0.73 -45.63 -0.89 -45.95 -3.7L-45.47 -3.7C-43.23 -0.83 -40.13 0.6 -36.19 0.6ZM-38.89 -26.89C-36.73 -26.89 -35.14 -26.06 -34.13 -24.41C-33.12 -22.76 -32.61 -20.28 -32.61 -16.97C-32.61 -10.2 -34.66 -6.82 -38.77 -6.82C-41.09 -6.82 -42.79 -7.6 -43.86 -9.16C-44.93 -10.73 -45.47 -13.31 -45.47 -16.91L-45.47 -17.91C-45.43 -21.11 -44.89 -23.41 -43.85 -24.8C-42.81 -26.19 -41.15 -26.89 -38.89 -26.89Z M-6.53 0L-6.53 -46.75L-15.7 -46.75L-15.7 0Z M-1.73 -33.59L11.61 -0.24L11.07 1.41C10.39 3.41 9.44 4.91 8.23 5.9C7.02 6.89 5.6 7.39 3.98 7.39C2.68 7.39 1.48 7.26 0.38 7L0.38 14.27C1.9 14.61 3.45 14.78 5.03 14.78C8.26 14.78 11.08 13.91 13.49 12.17C15.9 10.42 17.76 7.8 19.06 4.3L33.27 -33.59L23.45 -33.59L17.23 -14.69C16.59 -12.87 16.16 -10.93 15.94 -8.86L15.76 -8.86C15.56 -11.11 15.19 -13.05 14.65 -14.69L8.31 -33.59Z M57.46 -36.8C59.06 -36.8 60.69 -36.51 62.35 -35.93C64.02 -35.35 65.67 -34.67 67.31 -33.89L70.31 -41.46C66.01 -43.52 61.72 -44.55 57.46 -44.55C53.27 -44.55 49.62 -43.64 46.51 -41.8C43.39 -39.97 41 -37.34 39.34 -33.9C37.68 -30.47 36.85 -26.47 36.85 -21.9C36.85 -14.65 38.54 -9.09 41.92 -5.21C45.31 -1.34 50.2 0.6 56.58 0.6C61.03 0.6 65.06 -0.15 68.66 -1.65L68.66 -9.46C64.28 -7.92 60.54 -7.15 57.46 -7.15C50.11 -7.15 46.43 -12.05 46.43 -21.84C46.43 -26.55 47.39 -30.22 49.31 -32.85C51.24 -35.49 53.95 -36.8 57.46 -36.8Z M98.61 0L105.01 0L105.01 -22.38C105.01 -26.39 103.81 -29.37 101.41 -31.33C99 -33.3 95.55 -34.28 91.04 -34.28C86.34 -34.28 82.05 -33.27 78.19 -31.24L81.22 -25.06C84.84 -26.68 88 -27.49 90.68 -27.49C94.17 -27.49 95.91 -25.79 95.91 -22.38L95.91 -20.91L90.08 -20.73C85.05 -20.55 81.29 -19.61 78.8 -17.92C76.31 -16.23 75.06 -13.6 75.06 -10.03C75.06 -6.63 75.99 -4.01 77.84 -2.16C79.69 -0.32 82.23 0.6 85.46 0.6C88.08 0.6 90.21 0.23 91.84 -0.53C93.47 -1.28 95.06 -2.62 96.6 -4.57L96.84 -4.57ZM95.91 -15.56L95.91 -12.8C95.91 -10.78 95.27 -9.15 94 -7.93C92.73 -6.71 91.03 -6.1 88.91 -6.1C85.95 -6.1 84.46 -7.39 84.46 -9.97C84.46 -11.78 85.12 -13.12 86.42 -14C87.72 -14.88 89.7 -15.36 92.37 -15.44Z M133.19 -34.22C131.11 -34.22 129.18 -33.64 127.41 -32.49C125.64 -31.34 124.23 -29.82 123.19 -27.94L122.74 -27.94L121.39 -33.59L114.45 -33.59L114.45 0L123.61 0L123.61 -17.09C123.61 -19.8 124.43 -21.9 126.06 -23.4C127.69 -24.91 129.97 -25.66 132.89 -25.66C133.95 -25.66 134.86 -25.56 135.6 -25.36L136.29 -33.95C135.47 -34.13 134.43 -34.22 133.19 -34.22Z M155.06 -27.7C157.01 -27.7 158.55 -27.08 159.69 -25.85C160.83 -24.62 161.42 -22.87 161.46 -20.61L148.6 -20.61C148.76 -22.87 149.4 -24.62 150.5 -25.85C151.6 -27.08 153.12 -27.7 155.06 -27.7ZM156.36 0.6C158.98 0.6 161.2 0.41 163.02 0.02C164.85 -0.38 166.56 -0.97 168.16 -1.77L168.16 -8.86C166.2 -7.94 164.32 -7.27 162.51 -6.85C160.71 -6.43 158.8 -6.22 156.78 -6.22C154.17 -6.22 152.15 -6.95 150.71 -8.41C149.27 -9.87 148.49 -11.91 148.39 -14.51L170.05 -14.51L170.05 -18.96C170.05 -23.72 168.73 -27.46 166.09 -30.16C163.45 -32.87 159.75 -34.22 155 -34.22C150.04 -34.22 146.15 -32.68 143.33 -29.61C140.52 -26.53 139.11 -22.18 139.11 -16.55C139.11 -11.09 140.63 -6.86 143.68 -3.88C146.72 -0.89 150.95 0.6 156.36 0.6Z"></path></g></g></g></svg>