<svg xmlns="http://www.w3.org/2000/svg" id="SvgjsSvg408347" width="4096" height="1449.01021677786" version="1.1" xmlns:xlink="http://www.w3.org/1999/xlink" xmlns:svgjs="http://svgjs.com/svgjs"><defs id="SvgjsDefs408348"></defs><g id="SvgjsG408349" transform="translate(328, 328) scale(34.4)" opacity="1"><defs id="SvgjsDefs131451"></defs><g id="SvgjsG131452" transform="scale(0.221957970049557)" opacity="1"><g id="SvgjsG131453" class="GNloRTYO-" transform="translate(-0.9512841003323497, -0.02333376695374798) scale(1.1552429612331074)" light-content="false" non-strokable="false" fill="#1e6eca"><path d="M79.3 71.9c-2.4-1-4.9-.9-7.1 0l-9.8-13.2c-1.2 1.1-2.4 2-3.8 2.8l9.8 13.2c-.5.7-1 1.4-1.4 2.2-2 4.8.2 10.3 5 12.3s10.3-.3 12.3-5c2.1-4.8-.2-10.2-5-12.3zM14.7 68c3.5-2 5.3-5.9 4.7-9.6l10.8-4.6c0-.1-.1-.1-.1-.2-.7-1.3-1.3-2.7-1.7-4.1L17.6 54c-2.8-3.6-7.8-4.7-11.9-2.5C1.1 54-.5 59.7 2 64.3c2.5 4.5 8.2 6.2 12.7 3.7zM75.3 1.2c-4.5 2.5-6.2 8.2-3.7 12.8.1.2.2.3.4.5L61.5 25.8c1.3.9 2.4 2 3.5 3.2l10.4-11.3c2.7 1.4 6.1 1.5 8.9-.1 4.5-2.5 6.2-8.2 3.7-12.8-2.5-4.5-8.2-6.1-12.7-3.6z"></path><circle cx="48.9" cy="43.1" r="16.1"></circle></g><g id="SvgjsG131454" class="text" transform="translate(284.70559575076066, 67.73498043227116) scale(1)" light-content="false" fill="#2a2d34"><path d="M-137.74 -11.89C-137.74 -14.69 -138.48 -17.05 -139.97 -18.97C-141.45 -20.89 -144.19 -22.81 -148.2 -24.73C-151.23 -26.17 -153.14 -27.17 -153.96 -27.73C-154.77 -28.29 -155.36 -28.86 -155.73 -29.46C-156.1 -30.05 -156.28 -30.75 -156.28 -31.55C-156.28 -32.84 -155.83 -33.89 -154.91 -34.69C-153.99 -35.49 -152.67 -35.89 -150.95 -35.89C-149.51 -35.89 -148.04 -35.7 -146.54 -35.33C-145.05 -34.96 -143.16 -34.31 -140.87 -33.37L-137.94 -40.43C-140.15 -41.39 -142.27 -42.13 -144.29 -42.66C-146.31 -43.18 -148.43 -43.45 -150.66 -43.45C-155.19 -43.45 -158.74 -42.36 -161.31 -40.2C-163.88 -38.03 -165.16 -35.05 -165.16 -31.26C-165.16 -29.25 -164.77 -27.49 -163.99 -25.99C-163.21 -24.48 -162.16 -23.16 -160.85 -22.03C-159.55 -20.9 -157.58 -19.72 -154.97 -18.49C-152.17 -17.16 -150.32 -16.19 -149.41 -15.59C-148.51 -14.98 -147.82 -14.35 -147.35 -13.7C-146.88 -13.04 -146.65 -12.29 -146.65 -11.46C-146.65 -9.95 -147.18 -8.82 -148.24 -8.06C-149.31 -7.29 -150.83 -6.91 -152.83 -6.91C-154.49 -6.91 -156.32 -7.18 -158.32 -7.71C-160.32 -8.23 -162.77 -9.14 -165.66 -10.43L-165.66 -1.99C-162.14 -0.27 -158.1 0.59 -153.53 0.59C-148.57 0.59 -144.7 -0.53 -141.91 -2.75C-139.13 -4.98 -137.74 -8.03 -137.74 -11.89Z M-107.48 0L-100.62 0L-100.62 -32.75L-109.56 -32.75L-109.56 -17.34C-109.56 -13.48 -110.11 -10.71 -111.23 -9.04C-112.34 -7.37 -114.15 -6.53 -116.65 -6.53C-118.48 -6.53 -119.82 -7.12 -120.66 -8.31C-121.5 -9.49 -121.92 -11.26 -121.92 -13.62L-121.92 -32.75L-130.85 -32.75L-130.85 -11.4C-130.85 -7.53 -129.88 -4.57 -127.92 -2.5C-125.97 -0.44 -123.07 0.59 -119.22 0.59C-116.98 0.59 -114.98 0.17 -113.22 -0.66C-111.46 -1.49 -110.1 -2.67 -109.15 -4.19L-108.68 -4.19Z M-73.26 0.59C-70.7 0.59 -68.47 -0.09 -66.58 -1.44C-64.68 -2.78 -63.22 -4.75 -62.2 -7.32C-61.17 -9.9 -60.66 -12.94 -60.66 -16.44C-60.66 -21.75 -61.75 -25.9 -63.94 -28.89C-66.13 -31.87 -69.16 -33.37 -73.02 -33.37C-77.12 -33.37 -80.22 -31.75 -82.31 -28.51L-82.72 -28.51L-83.98 -32.75L-91.25 -32.75L-91.25 14.41L-82.31 14.41L-82.31 1.14C-82.31 0.71 -82.47 -0.87 -82.78 -3.6L-82.31 -3.6C-80.12 -0.81 -77.1 0.59 -73.26 0.59ZM-75.89 -26.22C-73.78 -26.22 -72.24 -25.42 -71.25 -23.8C-70.26 -22.19 -69.77 -19.78 -69.77 -16.55C-69.77 -9.95 -71.77 -6.65 -75.78 -6.65C-78.04 -6.65 -79.7 -7.41 -80.74 -8.94C-81.79 -10.46 -82.31 -12.98 -82.31 -16.49L-82.31 -17.46C-82.27 -20.59 -81.74 -22.83 -80.73 -24.18C-79.71 -25.54 -78.1 -26.22 -75.89 -26.22Z M-35.29 0.59C-32.73 0.59 -30.5 -0.09 -28.61 -1.44C-26.71 -2.78 -25.25 -4.75 -24.23 -7.32C-23.2 -9.9 -22.69 -12.94 -22.69 -16.44C-22.69 -21.75 -23.78 -25.9 -25.97 -28.89C-28.16 -31.87 -31.19 -33.37 -35.05 -33.37C-39.16 -33.37 -42.25 -31.75 -44.34 -28.51L-44.75 -28.51L-46.01 -32.75L-53.28 -32.75L-53.28 14.41L-44.34 14.41L-44.34 1.14C-44.34 0.71 -44.5 -0.87 -44.81 -3.6L-44.34 -3.6C-42.15 -0.81 -39.14 0.59 -35.29 0.59ZM-37.92 -26.22C-35.82 -26.22 -34.27 -25.42 -33.28 -23.8C-32.29 -22.19 -31.8 -19.78 -31.8 -16.55C-31.8 -9.95 -33.8 -6.65 -37.81 -6.65C-40.07 -6.65 -41.73 -7.41 -42.77 -8.94C-43.82 -10.46 -44.34 -12.98 -44.34 -16.49L-44.34 -17.46C-44.3 -20.59 -43.77 -22.83 -42.76 -24.18C-41.74 -25.54 -40.13 -26.22 -37.92 -26.22Z M-6.37 0L-6.37 -45.59L-15.31 -45.59L-15.31 0Z M-1.68 -32.75L11.32 -0.23L10.8 1.38C10.13 3.33 9.21 4.79 8.03 5.76C6.85 6.72 5.46 7.21 3.88 7.21C2.61 7.21 1.44 7.08 0.37 6.83L0.37 13.92C1.85 14.25 3.36 14.41 4.91 14.41C8.05 14.41 10.8 13.56 13.15 11.87C15.51 10.17 17.32 7.61 18.59 4.19L32.45 -32.75L22.87 -32.75L16.8 -14.33C16.18 -12.55 15.76 -10.65 15.54 -8.64L15.37 -8.64C15.17 -10.83 14.81 -12.72 14.28 -14.33L8.1 -32.75Z M56.03 -35.89C57.59 -35.89 59.18 -35.61 60.81 -35.04C62.43 -34.47 64.04 -33.81 65.64 -33.05L68.57 -40.43C64.37 -42.44 60.19 -43.45 56.03 -43.45C51.95 -43.45 48.39 -42.55 45.35 -40.77C42.31 -38.98 39.99 -36.41 38.36 -33.06C36.74 -29.71 35.93 -25.81 35.93 -21.36C35.93 -14.29 37.58 -8.86 40.88 -5.08C44.18 -1.3 48.95 0.59 55.18 0.59C59.52 0.59 63.44 -0.15 66.96 -1.61L66.96 -9.23C62.68 -7.72 59.04 -6.97 56.03 -6.97C48.86 -6.97 45.28 -11.75 45.28 -21.3C45.28 -25.89 46.22 -29.47 48.09 -32.04C49.97 -34.6 52.61 -35.89 56.03 -35.89Z M96.17 0L102.41 0L102.41 -21.83C102.41 -25.73 101.24 -28.64 98.89 -30.56C96.55 -32.47 93.18 -33.43 88.78 -33.43C84.19 -33.43 80.01 -32.44 76.25 -30.47L79.2 -24.43C82.74 -26.02 85.82 -26.81 88.43 -26.81C91.83 -26.81 93.53 -25.15 93.53 -21.83L93.53 -20.39L87.85 -20.21C82.94 -20.04 79.28 -19.13 76.85 -17.48C74.41 -15.83 73.2 -13.26 73.2 -9.79C73.2 -6.46 74.1 -3.91 75.91 -2.11C77.71 -0.31 80.19 0.59 83.33 0.59C85.89 0.59 87.97 0.22 89.56 -0.51C91.15 -1.25 92.7 -2.56 94.2 -4.45L94.44 -4.45ZM93.53 -15.18L93.53 -12.48C93.53 -10.51 92.91 -8.93 91.67 -7.73C90.43 -6.54 88.77 -5.95 86.7 -5.95C83.81 -5.95 82.37 -7.21 82.37 -9.73C82.37 -11.48 83 -12.79 84.27 -13.65C85.54 -14.51 87.48 -14.98 90.07 -15.06Z M129.89 -33.37C127.86 -33.37 125.98 -32.81 124.25 -31.68C122.52 -30.56 121.15 -29.08 120.13 -27.25L119.69 -27.25L118.37 -32.75L111.61 -32.75L111.61 0L120.54 0L120.54 -16.67C120.54 -19.31 121.34 -21.36 122.93 -22.82C124.52 -24.29 126.74 -25.02 129.59 -25.02C130.63 -25.02 131.51 -24.92 132.23 -24.73L132.91 -33.11C132.1 -33.28 131.1 -33.37 129.89 -33.37Z M151.22 -27.01C153.11 -27.01 154.61 -26.41 155.73 -25.21C156.84 -24.01 157.42 -22.3 157.46 -20.1L144.92 -20.1C145.07 -22.3 145.69 -24.01 146.76 -25.21C147.84 -26.41 149.32 -27.01 151.22 -27.01ZM152.48 0.59C155.03 0.59 157.2 0.4 158.98 0.01C160.76 -0.37 162.43 -0.95 163.99 -1.73L163.99 -8.64C162.08 -7.74 160.24 -7.09 158.48 -6.68C156.72 -6.27 154.86 -6.06 152.89 -6.06C150.35 -6.06 148.37 -6.78 146.97 -8.2C145.56 -9.63 144.81 -11.61 144.71 -14.15L165.83 -14.15L165.83 -18.49C165.83 -23.13 164.55 -26.78 161.97 -29.41C159.39 -32.05 155.79 -33.37 151.16 -33.37C146.31 -33.37 142.52 -31.87 139.78 -28.87C137.03 -25.87 135.66 -21.63 135.66 -16.14C135.66 -10.81 137.14 -6.69 140.11 -3.78C143.08 -0.87 147.2 0.59 152.48 0.59Z"></path></g></g></g></svg>